<svg width="159" height="183" viewBox="0 0 159 183" fill="none" xmlns="http://www.w3.org/2000/svg">
<path d="M33.85 0C24.8724 0 16.2625 3.56633 9.91444 9.91444C3.56633 16.2625 0 24.8724 0 33.85L0 83.57C0 97.9713 5.72088 111.783 15.9041 121.966C26.0873 132.149 39.8987 137.87 54.3 137.87H66.1L103.2 183V137.87H124.32C128.767 137.869 133.169 136.992 137.277 135.289C141.384 133.586 145.116 131.091 148.26 127.946C151.403 124.8 153.896 121.067 155.596 116.958C157.297 112.85 158.171 108.447 158.17 104V33.85C158.17 24.8724 154.604 16.2625 148.256 9.91444C141.907 3.56633 133.298 0 124.32 0H33.85Z" fill="url(#paint0_linear)"/>
<defs>
<linearGradient id="paint0_linear" x1="163.53" y1="34.05" x2="13.13" y2="120.88" gradientUnits="userSpaceOnUse">
<stop stop-color="#ADD8E6"/>
<stop offset="1" stop-color="white"/>
</linearGradient>
</defs>
</svg>
