<svg width="263" height="237" viewBox="0 0 263 237" fill="none" xmlns="http://www.w3.org/2000/svg">
<path d="M228.08 34.66C208.863 15.444 183.618 3.42745 156.587 0.629407C129.555 -2.16863 102.384 4.42231 79.6389 19.2949C56.8937 34.1674 39.9604 56.4152 31.684 82.3003C23.4076 108.185 24.2925 136.13 34.19 161.44L0 229.12L64.49 205.6C87.2995 226.51 117.392 237.653 148.319 236.641C179.246 235.63 208.546 222.544 229.94 200.188C251.335 177.833 263.121 147.986 262.773 117.045C262.425 86.1033 249.971 56.5291 228.08 34.66V34.66Z" fill="url(#paint0_linear)"/>
<defs>
<linearGradient id="paint0_linear" x1="0" y1="118.34" x2="262.74" y2="118.34" gradientUnits="userSpaceOnUse">
<stop stop-color="#ADD8E6"/>
<stop offset="1" stop-color="white"/>
</linearGradient>
</defs>
</svg>
