<svg width="174" height="174" viewBox="0 0 174 174" fill="none" xmlns="http://www.w3.org/2000/svg">
<g clip-path="url(#clip0)">
<path d="M0 91.44L0 -0.00994873H91.44C113.084 -0.00994873 133.842 8.58822 149.147 23.8931C164.452 39.1979 173.05 59.9557 173.05 81.6001V91.44C173.05 113.084 164.452 133.842 149.147 149.147C133.842 164.452 113.084 173.05 91.44 173.05H81.62C70.902 173.051 60.2887 170.941 50.3861 166.841C40.4836 162.74 31.4858 156.729 23.9066 149.151C16.3273 141.572 10.3151 132.575 6.21315 122.673C2.11124 112.771 -8.04633e-08 102.158 0 91.44H0Z" fill="#FF5757"/>
</g>
<defs>
<clipPath id="clip0">
<rect width="173.05" height="173.06" fill="white"/>
</clipPath>
</defs>
</svg>
