<svg width="109" height="109" viewBox="0 0 109 109" fill="none" xmlns="http://www.w3.org/2000/svg">
<g clip-path="url(#clip0)">
<path d="M54.3001 108.6L9.91821e-05 108.6V54.29C9.91821e-05 39.8887 5.72097 26.0773 15.9042 15.8941C26.0874 5.71085 39.8988 -0.010025 54.3001 -0.010025C68.7014 -0.010025 82.5128 5.71085 92.696 15.8941C102.879 26.0773 108.6 39.8887 108.6 54.29C108.601 61.4216 107.198 68.4836 104.47 75.0728C101.741 81.6619 97.7419 87.6491 92.6995 92.6923C87.6572 97.7356 81.6707 101.736 75.0821 104.466C68.4935 107.195 61.4317 108.6 54.3001 108.6V108.6Z" fill="#FF5757"/>
</g>
<defs>
<clipPath id="clip0">
<rect width="108.6" height="108.6" fill="white"/>
</clipPath>
</defs>
</svg>
