<?xml version="1.0" encoding="utf-8"?>
<!-- Generator: Adobe Illustrator 25.2.1, SVG Export Plug-In . SVG Version: 6.00 Build 0)  -->
<svg version="1.1" id="Layer_1" xmlns="http://www.w3.org/2000/svg" xmlns:xlink="http://www.w3.org/1999/xlink" x="0px" y="0px"
	 viewBox="0 0 1700 50" style="enable-background:new 0 0 1700 50;" xml:space="preserve">
<style type="text/css">
	.st0{fill:none;}
	.st1{opacity:0.2;}
	.st2{fill:none;stroke:#867163;}
</style>
<rect class="st0" width="1700" height="50"/>
<g id="Banner_Wave">
	<g id="Wave_Plain" transform="translate(-126.122 -4847.923)">
		<g id="Group_177" transform="translate(-130.494 4509.063)" class="st1">
			<path id="Path_811" class="st2" d="M368.4,304.1c7.8,5,9.2,15.4,12.4,24.1c3,8.1,6.1,15.9,5.8,24.6c-0.3,10.1,0.6,22.7-7.5,28.8
				c-8.2,6.1-19.7-1.1-29.9-0.7c-9.2,0.4-19.2,8.3-26.9,3.1c-7.7-5.2-4-17.6-7.4-26.4c-3.1-8-12.3-13.9-11.5-22.5
				c0.8-8.7,9-14.6,15.7-20.3c6.5-5.6,13.6-10.1,22-12C350.2,300.9,360.5,299.1,368.4,304.1z"/>
			<path id="Path_812" class="st2" d="M380.6,278.7c12.6,8,14.8,24.9,20.1,38.9c4.9,13,9.9,25.7,9.4,39.6
				c-0.5,16.3,1.1,36.5-12,46.3c-13.2,9.9-31.8-1.9-48.3-1.2c-14.9,0.6-31,13.3-43.4,4.9c-12.5-8.5-6.5-28.4-12-42.5
				c-5-13-19.9-22.4-18.6-36.2c1.3-14,14.5-23.5,25.2-32.7c10.5-8.9,21.9-16.3,35.4-19.2C351.2,273.5,367.8,270.6,380.6,278.7z"/>
			<path id="Path_813" class="st2" d="M392.4,254.1c17.3,11,20.3,34,27.5,53.2c6.7,17.8,13.5,35.1,13,54.1
				c-0.7,22.4,1.5,49.9-16.4,63.3c-18,13.5-43.5-2.6-66.1-1.7c-20.4,0.8-42.5,18.1-59.4,6.7c-17.1-11.6-8.9-38.9-16.4-58.1
				c-6.9-17.7-27.3-30.6-25.5-49.5c1.8-19.2,19.8-32.1,34.5-44.6c14.3-12.2,30-22.3,48.5-26.2C352.1,246.9,374.9,243,392.4,254.1z"
				/>
			<path id="Path_814" class="st2" d="M403,231.9c21.5,13.7,25.3,42.3,34.2,66.1c8.4,22.1,16.8,43.7,16.1,67.3
				c-0.8,27.8,1.9,62.1-20.4,78.7c-22.4,16.8-54.1-3.2-82.1-2.1c-25.4,1-52.8,22.5-73.8,8.3c-21.3-14.4-11.1-48.3-20.5-72.2
				c-8.6-22-34-38.1-31.7-61.6c2.3-23.9,24.6-39.9,42.8-55.4c17.8-15.2,37.3-27.7,60.2-32.6C353,222.9,381.3,218.1,403,231.9z"/>
			<path id="Path_815" class="st2" d="M412.9,211.3c25.4,16.2,29.9,50,40.5,78.1c9.9,26.1,19.9,51.6,19.1,79.5
				c-0.9,32.8,2.3,73.3-24,93c-26.5,19.8-63.9-3.8-97.1-2.5c-30,1.2-62.4,26.6-87.3,9.7c-25.1-17-13.2-57.1-24.2-85.3
				c-10.2-26-40.1-45-37.5-72.8c2.7-28.2,29.1-47.1,50.6-65.5c21-17.9,44.1-32.7,71.2-38.5C353.8,200.6,387.3,194.9,412.9,211.3z"/>
			<path id="Path_816" class="st2" d="M423.2,189.8c29.4,18.8,34.6,58,47,90.6c11.5,30.3,23.1,59.8,22.1,92.2
				c-1.1,38.1,2.6,85-27.9,107.8c-30.7,22.9-74.1-4.4-112.6-2.9c-34.8,1.4-72.3,30.8-101.2,11.3c-29.2-19.8-15.3-66.2-28.1-98.9
				c-11.8-30.2-46.6-52.2-43.5-84.4c3.1-32.7,33.7-54.6,58.7-75.9c24.4-20.8,51.1-37.9,82.5-44.6
				C354.6,177.5,393.5,170.9,423.2,189.8z"/>
			<path id="Path_817" class="st2" d="M435.8,163.6c34.4,21.9,40.5,67.7,54.9,105.8c13.4,35.4,27,69.9,25.9,107.6
				c-1.3,44.5,3.1,99.3-32.5,125.9c-35.9,26.8-86.6-5.2-131.5-3.4c-40.6,1.6-84.5,36-118.2,13.1c-34.1-23.1-17.9-77.3-32.8-115.5
				c-13.8-35.3-54.4-60.9-50.9-98.5c3.6-38.2,39.4-63.8,68.5-88.7c28.4-24.3,59.7-44.3,96.4-52.1C355.7,149.2,401,141.5,435.8,163.6
				z"/>
			<path id="Path_818" class="st2" d="M449.5,135c39.8,25.4,46.8,78.4,63.5,122.4c15.5,41,31.2,80.9,30,124.5
				c-1.5,51.4,3.6,114.9-37.6,145.6c-41.5,31-100.2-6-152.2-4c-47,1.8-97.8,41.6-136.8,15.2c-39.4-26.7-20.7-89.4-38-133.7
				c-16-40.8-63-70.5-58.9-114c4.2-44.1,45.6-73.8,79.3-102.6c32.9-28.1,69.1-51.2,111.5-60.2C356.8,118.3,409.3,109.4,449.5,135z"
				/>
			<path id="Path_819" class="st2" d="M462.8,107.2c45.1,28.7,53,88.7,71.9,138.5c17.6,46.4,35.3,91.5,33.9,141
				c-1.6,58.2,4.1,130-42.6,164.8c-47,35-113.4-6.8-172.2-4.6c-53.2,2.1-110.7,47.1-154.8,17.2c-44.6-30.3-23.4-101.2-43-151.3
				c-18.1-46.2-71.3-79.8-66.7-129.1c4.7-50,51.6-83.5,89.7-116.1c37.3-31.8,78.2-57.9,126.2-68.2
				C357.9,88.3,417.3,78.2,462.8,107.2z"/>
			<path id="Path_820" class="st2" d="M475,81.8c49.9,31.8,58.7,98.2,79.6,153.3c19.4,51.3,39.1,101.3,37.6,156
				c-1.8,64.4,4.5,143.9-47.1,182.4c-52,38.8-125.5-7.6-190.6-5c-58.9,2.3-122.5,52.1-171.3,19c-49.4-33.5-25.9-112-47.6-167.4
				c-20-51.1-78.9-88.3-73.8-142.8c5.2-55.3,57.1-92.4,99.3-128.4c41.2-35.2,86.5-64.1,139.7-75.4C358.9,60.9,424.6,49.7,475,81.8z"
				/>
			<path id="Path_821" class="st2" d="M487.9,54.8c55,35,64.7,108.2,87.7,169c21.4,56.6,43.1,111.7,41.4,172c-2,71,5,158.6-51.9,201
				c-57.3,42.7-138.4-8.3-210.1-5.6c-64.9,2.5-135,57.5-188.9,20.9c-54.5-36.9-28.6-123.5-52.5-184.5c-22-56.3-87-97.4-81.3-157.4
				c5.7-61,62.9-101.9,109.4-141.6c45.4-38.8,95.4-70.7,154-83.1C359.9,31.8,432.4,19.4,487.9,54.8z"/>
			<path id="Path_822" class="st2" d="M502,25.4c60.5,38.6,71.3,119.1,96.6,186.1c23.6,62.3,47.5,122.9,45.6,189.3
				c-2.2,78.2,5.5,174.6-57.2,221.3C524,669.2,434.7,613,355.7,616c-71.5,2.7-148.6,63.2-208,23c-60-40.6-31.5-135.9-57.8-203.2
				c-24.3-62-95.8-107.2-89.6-173.3c6.3-67.1,69.2-112.1,120.5-155.9c50-42.7,105-77.8,169.5-91.5C361.1,0.1,440.9-13.5,502,25.4z"
				/>
		</g>
	</g>
	<g id="Wave_Plain-2" transform="translate(1245.878 -4637.923)">
		<g id="Group_177-2" transform="translate(-130.494 4509.063)" class="st1">
			<path id="Path_816-2" class="st2" d="M423.2,189.8c29.4,18.8,34.6,58,47,90.6c11.5,30.3,23.1,59.8,22.1,92.2
				c-1.1,38.1,2.6,85-27.9,107.8c-30.7,22.9-74.1-4.4-112.6-2.9c-34.8,1.4-72.3,30.8-101.2,11.3c-29.2-19.8-15.3-66.2-28.1-98.9
				c-11.8-30.2-46.6-52.2-43.5-84.4c3.1-32.7,33.7-54.6,58.7-75.9c24.4-20.8,51.1-37.9,82.5-44.6
				C354.6,177.5,393.5,170.9,423.2,189.8z"/>
			<path id="Path_817-2" class="st2" d="M435.8,163.6c34.4,21.9,40.5,67.7,54.9,105.8c13.4,35.4,27,69.9,25.9,107.6
				c-1.3,44.5,3.1,99.3-32.5,125.9c-35.9,26.8-86.6-5.2-131.5-3.4c-40.6,1.6-84.5,36-118.2,13.1c-34.1-23.1-17.9-77.3-32.8-115.5
				c-13.8-35.3-54.4-60.9-50.9-98.5c3.6-38.2,39.4-63.8,68.5-88.7c28.4-24.3,59.7-44.3,96.4-52.1C355.7,149.2,401,141.5,435.8,163.6
				z"/>
			<path id="Path_818-2" class="st2" d="M449.5,135c39.8,25.4,46.8,78.4,63.5,122.4c15.5,41,31.2,80.9,30,124.5
				c-1.5,51.4,3.6,114.9-37.6,145.6c-41.5,31-100.2-6-152.2-4c-47,1.8-97.8,41.6-136.8,15.2c-39.4-26.7-20.7-89.4-38-133.7
				c-16-40.8-63-70.5-58.9-114c4.2-44.1,45.6-73.8,79.3-102.6c32.9-28.1,69.1-51.2,111.5-60.2C356.8,118.3,409.3,109.4,449.5,135z"
				/>
			<path id="Path_819-2" class="st2" d="M462.8,107.2c45.1,28.7,53,88.7,71.9,138.5c17.6,46.4,35.3,91.5,33.9,141
				c-1.6,58.2,4.1,130-42.6,164.8c-47,35-113.4-6.8-172.2-4.6c-53.2,2.1-110.7,47.1-154.8,17.2c-44.6-30.3-23.4-101.2-43-151.3
				c-18.1-46.2-71.3-79.8-66.7-129.1c4.7-50,51.6-83.5,89.7-116.1c37.3-31.8,78.2-57.9,126.2-68.2
				C357.9,88.3,417.3,78.2,462.8,107.2z"/>
			<path id="Path_820-2" class="st2" d="M475,81.8c49.9,31.8,58.7,98.2,79.6,153.3c19.4,51.3,39.1,101.3,37.6,156
				c-1.8,64.4,4.5,143.9-47.1,182.4c-52,38.8-125.5-7.6-190.6-5c-58.9,2.3-122.5,52.1-171.3,19c-49.4-33.5-25.9-112-47.6-167.4
				c-20-51.1-78.9-88.3-73.8-142.8c5.2-55.3,57.1-92.4,99.3-128.4c41.2-35.2,86.5-64.1,139.7-75.4C358.9,60.9,424.6,49.7,475,81.8z"
				/>
			<path id="Path_821-2" class="st2" d="M487.9,54.8c55,35,64.7,108.2,87.7,169c21.4,56.6,43.1,111.7,41.4,172
				c-2,71,5,158.6-51.9,201c-57.3,42.7-138.4-8.3-210.1-5.6c-64.9,2.5-135,57.5-188.9,20.9c-54.5-36.9-28.6-123.5-52.5-184.5
				c-22-56.3-87-97.4-81.3-157.4c5.7-61,62.9-101.9,109.4-141.6c45.4-38.8,95.4-70.7,154-83.1C359.9,31.8,432.4,19.4,487.9,54.8z"/>
			<path id="Path_822-2" class="st2" d="M502,25.4c60.5,38.6,71.3,119.1,96.6,186.1c23.6,62.3,47.5,122.9,45.6,189.3
				c-2.2,78.2,5.5,174.6-57.2,221.3C524,669.2,434.7,613,355.7,616c-71.5,2.7-148.6,63.2-208,23c-60-40.6-31.5-135.9-57.8-203.2
				c-24.3-62-95.8-107.2-89.6-173.3c6.3-67.1,69.2-112.1,120.5-155.9c50-42.7,105-77.8,169.5-91.5C361.1,0.1,440.9-13.5,502,25.4z"
				/>
		</g>
	</g>
</g>
</svg>
