<svg width="54" height="49" viewBox="0 0 54 49" fill="none" xmlns="http://www.w3.org/2000/svg">
<mask id="mask0" mask-type="alpha" maskUnits="userSpaceOnUse" x="0" y="0" width="54" height="49">
<path d="M43.8444 40.0749C44.503 40.0749 45.1398 40.3123 45.6395 40.744L51.1508 45.506V11.1274C51.1508 9.02035 50.3531 7.02257 48.9687 5.56789C47.5884 4.1173 45.7425 3.32608 43.8444 3.32608H10.3063C8.40828 3.32608 6.56234 4.1173 5.18195 5.56789C3.79766 7.02257 3 9.02035 3 11.1274V32.2736C3 34.3806 3.79766 36.3785 5.18195 37.8331C6.56233 39.2837 8.40827 40.0749 10.3063 40.0749H25.3985H43.8444Z" fill="white" stroke="white" stroke-width="5" stroke-linecap="round" stroke-linejoin="round"/>
</mask>
<g mask="url(#mask0)">
<path d="M53.9059 0.554337H0.244904V51.5401H53.9059V0.554337Z" fill="#C4C4C4"/>
<path d="M53.9059 0.554337H0.244904V51.5401H53.9059V0.554337Z" fill="#FF5757"/>
<path d="M35.9028 20.9681H18.248" stroke="white" stroke-width="5" stroke-linecap="square" stroke-linejoin="round"/>
<path d="M27.0755 12.3738V29.5623" stroke="white" stroke-width="5" stroke-linecap="square" stroke-linejoin="round"/>
</g>
<rect x="5.24496" y="6" width="43" height="32" fill="#FF5757"/>
<path d="M38.3258 17.7331H32.76C32.0193 17.7331 31.419 17.1315 31.419 16.3899V11.8111C31.419 11.0695 30.8188 10.4679 30.0781 10.4679H24.6225C23.8818 10.4679 23.2815 11.0695 23.2815 11.8111C23.2815 11.8111 23.2815 12.3199 23.2815 12.9984C23.2815 13.6766 23.2815 14.5244 23.2815 15.203C23.163 15.9271 23.163 16.9451 22.8243 17.2842C20.7921 18.6418 15.711 15.9271 15.886 20.1389C15.8834 20.7461 15.8821 21.5056 15.8821 22.1129C15.8821 22.7201 15.8821 23.176 15.8821 23.176C15.8821 23.9176 16.4823 24.5191 17.223 24.5191H21.9406C22.3107 24.5191 22.6463 24.6692 22.8886 24.9124C23.1315 25.1557 23.2828 25.4913 23.2885 25.8623C24.1793 28.1421 22.1466 33.5706 26.0483 32.9629C26.845 32.9629 27.8556 32.9629 28.6636 32.9629C29.4721 32.9629 30.0781 32.9629 30.0781 32.9629C30.8188 32.9629 31.419 32.3613 31.419 31.6193C31.419 31.6193 31.419 29.0608 31.419 27.355C31.419 26.9284 31.419 26.5553 31.419 26.2884C31.2921 25.7669 31.6312 25.0883 31.9698 24.7488C34.6797 23.3917 40.7767 26.1059 39.6663 21.1259C39.6663 20.7842 39.6663 20.4425 39.6663 20.1389C39.6663 19.5316 39.6663 19.0762 39.6663 19.0762C39.6663 18.3342 39.0661 17.7331 38.3258 17.7331Z" fill="white"/>
<path d="M28.9336 11.71C29.2656 11.6011 29.638 11.654 29.9197 11.8657C30.2106 12.0845 30.3458 12.4428 30.4211 12.7867C30.5116 13.2001 30.5401 13.6297 30.5716 14.0511C30.6075 14.5231 30.6271 14.9961 30.6311 15.469C30.6355 16.0076 30.6188 16.5461 30.5825 17.0834C30.5681 17.2973 30.9006 17.2964 30.915 17.0834C30.9841 16.0592 30.9806 15.0311 30.901 14.0077C30.8651 13.5492 30.8345 13.0785 30.726 12.6305C30.6315 12.2389 30.4517 11.8583 30.1271 11.6081C29.7675 11.3311 29.2757 11.2476 28.8452 11.3889C28.6426 11.4554 28.7293 11.7769 28.9336 11.71Z" fill="#FF5757"/>
<path d="M29.6922 13.7085C29.8195 14.5739 29.8528 15.4515 29.7998 16.3243C29.7867 16.5383 30.1192 16.5374 30.1323 16.3243C30.187 15.4205 30.1446 14.5161 30.0129 13.6201C29.9998 13.5313 29.8873 13.4819 29.8086 13.5038C29.7132 13.5305 29.6791 13.6188 29.6922 13.7085Z" fill="#FF5757"/>
<path d="M19.946 23.8086C20.902 23.9771 21.882 23.7198 22.8322 23.9233C23.2133 24.0046 23.59 24.1573 23.8673 24.4399C24.1679 24.7471 24.2908 25.1719 24.3495 25.5879C24.4286 26.151 24.4313 26.7316 24.4081 27.2986C24.3993 27.5129 24.7318 27.5125 24.7406 27.2986C24.7629 26.7569 24.7555 26.2092 24.6925 25.6706C24.6386 25.2104 24.5301 24.7444 24.2436 24.3695C23.6906 23.6468 22.715 23.5015 21.8636 23.5142C21.2546 23.5234 20.6386 23.5938 20.0344 23.4875C19.8248 23.4503 19.7351 23.7714 19.946 23.8086Z" fill="#FF5757"/>
<path d="M23.6958 23.2946C24.3512 23.1778 24.8618 23.7688 25.0372 24.3345C25.2594 25.052 25.1413 25.8146 25.1846 26.5522C25.1969 26.7653 25.5298 26.7666 25.5171 26.5522C25.469 25.7271 25.6112 24.8582 25.2953 24.0698C25.0228 23.3891 24.377 22.8365 23.6074 22.9735C23.397 23.0111 23.4863 23.3318 23.6958 23.2946Z" fill="#FF5757"/>
</svg>
