<svg width="510" height="108" viewBox="0 0 510 108" fill="none" xmlns="http://www.w3.org/2000/svg">
<path d="M211.42 26.5V86H199.563V41.0775L184.857 80.2625H172.32L157.615 41.4175V86H145.758V26.5H163.14L178.61 66.6625L194.038 26.5H211.42ZM309.394 26.5L291.629 86H277.264L264.514 43.5L251.764 86H237.399L219.634 26.5H231.959L244.752 72.145L258.054 26.5H271.187L284.489 72.145L297.282 26.5H309.394ZM344.517 26.5L367.679 86H355.014L349.829 72.145H324.457L319.272 86H306.904L330.067 26.5H344.517ZM337.164 38.23L328.537 61.2225H345.749L337.164 38.23ZM428.567 26.5V86H417.432L387.257 46.2625L387.215 86H375.357V26.5H386.45L416.667 66.2375V26.5H428.567ZM473.843 26.5L497.005 86H484.34L479.155 72.145H453.783L448.598 86H436.23L459.393 26.5H473.843ZM466.49 38.23L457.863 61.2225H475.075L466.49 38.23Z" fill="#333333"/>
<mask id="mask0" mask-type="alpha" maskUnits="userSpaceOnUse" x="0" y="12" width="105" height="96">
<path d="M86.9779 93.4072C88.332 93.4072 89.6412 93.9138 90.6685 94.8354L102 105V31.6174C102 27.1198 100.36 22.8554 97.5136 19.7504C94.6757 16.654 90.8804 14.9651 86.9779 14.9651H18.0221C14.1196 14.9651 10.3243 16.654 7.48619 19.7504C4.64002 22.8554 3 27.1198 3 31.6174V76.7549C3 81.2525 4.64002 85.5171 7.48619 88.622C10.3243 91.7184 14.1196 93.4072 18.0221 93.4072H49.0522H86.9779Z" fill="white" stroke="white" stroke-width="5" stroke-linecap="round" stroke-linejoin="round"/>
</mask>
<g mask="url(#mask0)">
<path d="M107.665 9.04871H-2.66458V117.88H107.665V9.04871Z" fill="#C4C4C4"/>
<path d="M107.665 9.04871H-2.66458V117.88H107.665V9.04871Z" fill="#FF5757"/>
<path d="M70.6496 52.6228H34.3506" stroke="white" stroke-width="5" stroke-linecap="square" stroke-linejoin="round"/>
<path d="M52.5002 34.2779V70.9674" stroke="white" stroke-width="5" stroke-linecap="square" stroke-linejoin="round"/>
</g>
<rect x="8" y="20" width="88" height="69" fill="#FF5757"/>
<path d="M75.3818 45.4582H63.8525C62.3182 45.4582 61.0748 44.1834 61.0748 42.612V32.9092C61.0748 31.3378 59.8315 30.063 58.2972 30.063H46.9962C45.462 30.063 44.2186 31.3378 44.2186 32.9092C44.2186 32.9092 44.2186 33.9874 44.2186 35.4253C44.2186 36.8622 44.2186 38.6589 44.2186 40.0968C43.973 41.6312 43.973 43.7885 43.2716 44.507C39.062 47.3837 28.5368 41.6312 28.8993 50.5562C28.8939 51.843 28.8912 53.4524 28.8912 54.7392C28.8912 56.026 28.8912 56.992 28.8912 56.992C28.8912 58.5634 30.1345 59.8382 31.6688 59.8382H41.4409C42.2076 59.8382 42.9027 60.1561 43.4048 60.6716C43.9077 61.1871 44.2213 61.8981 44.2331 62.6843C46.0782 67.5153 41.8678 79.0186 49.9497 77.7309C51.6 77.7309 53.6934 77.7309 55.3673 77.7309C57.042 77.7309 58.2972 77.7309 58.2972 77.7309C59.8315 77.7309 61.0748 76.4561 61.0748 74.8838C61.0748 74.8838 61.0748 69.4622 61.0748 65.8475C61.0748 64.9436 61.0748 64.1528 61.0748 63.5873C60.812 62.4822 61.5144 61.0443 62.2158 60.3249C67.8291 57.4491 80.4586 63.2007 78.1586 52.6477C78.1586 51.9236 78.1586 51.1996 78.1586 50.5562C78.1586 49.2694 78.1586 48.3043 78.1586 48.3043C78.1586 46.732 76.9152 45.4582 75.3818 45.4582Z" fill="white"/>
<path d="M55.9264 32.695C56.6143 32.4642 57.3855 32.5763 57.9691 33.025C58.5718 33.4886 58.8518 34.2479 59.0077 34.9765C59.1953 35.8526 59.2542 36.763 59.3194 37.6558C59.3937 38.6561 59.4345 39.6583 59.4427 40.6605C59.4517 41.8017 59.4173 42.943 59.3421 44.0814C59.3122 44.5348 60.0009 44.5329 60.0308 44.0814C60.174 41.9111 60.1668 39.7325 60.0018 37.564C59.9275 36.5925 59.8641 35.5949 59.6393 34.6456C59.4436 33.8158 59.0711 33.0093 58.3987 32.479C57.6537 31.8921 56.6351 31.7151 55.7434 32.0145C55.3238 32.1554 55.5032 32.8368 55.9264 32.695Z" fill="#FF5757"/>
<path d="M57.4978 36.93C57.7616 38.7637 57.8304 40.6235 57.7208 42.473C57.6936 42.9263 58.3823 42.9245 58.4095 42.473C58.5228 40.5576 58.4349 38.6413 58.1621 36.7427C58.1349 36.5545 57.902 36.4497 57.7389 36.4961C57.5413 36.5526 57.4706 36.7399 57.4978 36.93Z" fill="#FF5757"/>
<path d="M37.3093 58.3326C39.2895 58.6895 41.3195 58.1444 43.2879 58.5755C44.0772 58.7479 44.8575 59.0715 45.4321 59.6703C46.0547 60.3212 46.3093 61.2214 46.4308 62.103C46.5948 63.2962 46.6002 64.5264 46.5522 65.7279C46.5341 66.1822 47.2228 66.1812 47.2409 65.7279C47.2872 64.5802 47.2718 63.4195 47.1413 62.2782C47.0298 61.3029 46.805 60.3156 46.2114 59.5211C45.0659 57.9895 43.045 57.6818 41.2814 57.7086C40.0199 57.7281 38.7439 57.8774 37.4924 57.6521C37.0583 57.5733 36.8725 58.2538 37.3093 58.3326Z" fill="#FF5757"/>
<path d="M45.0768 57.2433C46.4344 56.9957 47.492 58.2482 47.8554 59.4469C48.3157 60.9674 48.071 62.5833 48.1608 64.1463C48.1861 64.5978 48.8758 64.6006 48.8495 64.1463C48.7498 62.3978 49.0444 60.5567 48.39 58.8861C47.8255 57.4435 46.4878 56.2726 44.8937 56.5628C44.4578 56.6425 44.6427 57.3221 45.0768 57.2433Z" fill="#FF5757"/>
</svg>
