<svg width="332" height="673" viewBox="0 0 332 673" fill="none" xmlns="http://www.w3.org/2000/svg">
<path d="M103.24 58.51L105.06 52.42L60.44 55.47L65.45 60.98L103.24 58.51V58.51ZM118.2 48.44L122.06 34.18L108.69 41.13L109.67 44.8L118.2 48.44V48.44ZM173.42 630.09L152.09 665.03L169.09 672.16L185.55 638.99L179.69 628.69L173.42 630.09V630.09Z" fill="#FFAAAA"/>
<path d="M214.56 386L205.27 370.58L148 332.32L110 338.18L98 319.72H87.45L87 300.27H100.38L108.53 296.82L97.24 284.82L78.72 285.56L68.97 289.64L46 267.16L85.87 253.16L83.82 270L118.02 266.73L132.84 210.59L140.52 214.51L179.13 172.69L172.58 164L200.76 148.9L203.01 152.19L214.58 148.28L210.81 130.82L202.26 118L198.26 124L185.6 102.22L190.41 103.49L193.46 99.24L192 86.64L197.87 83.85L191 57.9L169.5 37.78L163.28 46.47L149.28 33.57L135.74 46.21L148.55 72.06L157.34 94.75L165.86 97L176 99.67L175.58 107.11L148.67 150.9L143.2 148.59L145.2 140.25L125.34 128.25L133.29 82L122.71 44.65L110.15 74.38L95 93.68L97 89.87L55.5 92.26L29.85 121.14L13 168.17L16.79 230.65L32.79 295.53L41.41 294.35C43.11 300.02 51.41 326.35 51.34 326.52L87.85 359.4L119.79 353.29L112.49 342L124.26 350L119.79 353.33L115.06 467.88L153.06 657.61L180.21 617.22L183.6 560.86L186.17 561.04L209.55 517.38L237.55 492.78L249.05 412L225.17 395L214.56 386ZM69.82 290.47L69.69 290.34L78.82 289.42L78.93 289.58L69.82 290.47Z" fill="#FFAAAA"/>
<path d="M104.46 302.24L105.39 307.49L118.77 306.79L121.78 303.74L115.56 298.92L104.46 302.24V302.24ZM229.85 14.28L227.36 2.52002L157.51 18.97L164.17 26.67L141.11 28.89L142.65 34.46L165.05 27.69L178.23 42.95L203.85 35.66L208.52 60.76L214.09 60.81L223.05 70.54L219.71 80.62L230.06 115.65L236.82 119.56L303.87 90.03L305.43 69.77L331.23 49.71L331.24 7.53002L229.85 14.28V14.28ZM153.98 103.8L166.41 102.6L164.45 98.6L153.98 103.8Z" fill="#FFAAAA"/>
<path d="M53.01 321.52L57.58 294.32L32.77 295.53L26.36 264.55L72.56 247.34L83.82 269.98L108.73 199.44L112.87 202.76L167.63 156.12L159.51 141.84L190.5 117.06L176.68 86.86L168.77 95.12L160.77 94.19L156.39 83.08L148.02 81.24L119.02 130.72L113.12 128.11L115.29 118.68L89.58 102.06L123.8 74.05L122.71 44.65L114.95 58.97L61.12 66.06L63.3 61.76L4.97 137.07L0 254.61L73.85 361.82L87.85 359.4L64.39 321.47L53.01 321.52V321.52ZM180.83 409.49L184.32 402.81L170.79 381.34L107.39 338.58L87.85 359.4L82.75 488.83L144.59 658.87L153.05 657.57L156.71 593.89L169.72 587.33L195.28 521.65L214.18 510.19L217.7 432.62L198.45 409.72L180.83 409.49V409.49ZM304.01 45.5L294.76 37.23L331.24 7.52998L331.06 5.22998L200.24 16.25L204.18 23.26L210.19 23.31L230.21 48.94L219.71 80.62L228.31 90.03L298.32 51.51L289.88 48.3L291.68 43.3L304.01 45.5Z" fill="#FFFAFA"/>
<path d="M148.14 69.08L148.55 72.06L175.05 79.39L178.34 74.58L176.93 61.95L191.04 57.9L169.54 37.78L145.7 40.7L149.28 33.57L135.74 46.21L174.15 60.92L148.14 69.08ZM66.37 290.68L78.82 289.42L86.8 300.27L100.35 300.29L100.7 298.51L78.69 285.53L66.37 290.68ZM202.26 118.02L191.04 134.69L210.81 130.79L202.26 118.02ZM147.08 22.85L141.11 28.89L170.4 26.07L147.08 22.85ZM152.09 665.03L155.42 671.35L169.09 672.16L156.5 662.48L152.09 665.03ZM105.39 307.49L118.77 306.79L104.46 302.24L105.39 307.49ZM122.06 34.18L108.69 41.13L116.82 43.91L122.06 34.18V34.18ZM225.24 0L170.4 5.23L155.95 20.63L227.36 2.52L225.24 0ZM96.74 39.15L74.99 41.76L60.44 55.47L105.06 52.42L96.74 39.15V39.15Z" fill="#FFFAFA"/>
</svg>
