<svg width="569" height="555" viewBox="0 0 569 555" fill="none" xmlns="http://www.w3.org/2000/svg">
<path d="M432.2 330L404.06 276L411.39 267.18L416.64 271.46L444.13 234.79L440 229.42L440.31 223.42L431.31 207.26L436.61 198.82L423.38 193.38L427.38 184.38L431.31 185.86L432.66 191.06L440.6 189.19L449.22 204.19L479.22 202.58L469 176.1L453.35 172.1L460.98 171.24L463.49 147.16L437.24 123.1L439.53 113.63L457.62 105.75L489.1 89.41L509.36 128.49L522.62 118.87L513.62 66.31L471.68 65.8L400.71 49.24L321.44 52.35L321.18 51L328.51 45.09L327.51 43.42L305.12 13.69L300.18 33.27L285 30L278.76 49.14L260.36 56.83L260.56 56.44L259.56 43.22L267 13.48L250.84 13.38L240.24 30.67L241.52 58.67L229.7 68.15L195 70.2L196.69 75.86L177.79 33.08L139.24 65L128.42 82.78L138.81 93.43L125.91 106L116.39 78.2L91.49 98L93.69 116.5L87.44 129.43L102.8 126.79L112.95 120.19L95.3 141.49L104.03 148.86L93.22 159.28L86.46 167.9L92.24 196L106.71 192.54L125.35 163.09L127.35 162.18L140 201.1L132.9 207.49L140.01 211.72L161.79 192.57L158.36 189.22L159.46 188.36L174.91 203.55L172.75 204.71L177.91 211.71L181.41 209.93L188.71 217.1L178.9 214.38L98.71 229.93L83.57 229.52L121.11 211L120.41 203.44L106.63 196.05L10.41 235.05L0 299.18L21.14 362L87.27 404.1L138.39 504.63L180 544.14L210.92 420L206.46 386.77L241.8 311.28L225.63 316.85L184.53 232L185.26 231.69L190.37 239.42L191.37 232.74L227.74 304.48L256.85 307.91L255.26 248L235.97 248.7L232.55 229.7L303.83 265L319.14 322.31L324.39 324.53L331.15 326L332.89 335.23L360.49 342.64L363.13 337.5L359.43 326.81L354.35 325.81L370.35 291.81L381.71 293.25L405.64 324L432.2 330ZM257 77.41L258.41 69.66L256 65.35L257.69 62L262.59 74L257 77.41Z" fill="#FFAAAA"/>
<path d="M413.19 278.3L414.5 282.56L440.94 283.12L444.42 274.22L418.03 274.69L413.19 278.3V278.3ZM424.16 402.04L433.49 409.55L449.26 415.51L462.84 410.54L455.13 402.95L424.16 402.04V402.04ZM487.62 379.06L465.29 365.31L473.93 348.33L459.67 339.25L448.21 340.57L429.7 356.82L434.84 376.25L452.93 389.6L458.56 378.53L458.36 384.07L476.15 401.26L487.62 379.06V379.06ZM134.23 195.04L126.98 195.03L132.97 200.12L134.23 195.04ZM216.29 436.53L219.69 472.85L248.9 498.15L265.5 435.13L236.53 417.07L216.29 436.53ZM210.81 59.12L220.79 62.92L221.26 51.74L237.95 49.53L240.19 42.11L224.61 43.2L219.2 47.57L200.38 47.06L203.7 60.27L210.81 59.12ZM174.86 16.43L179.75 9.89L151.84 0L151.21 8.04L160.84 19.88L174.86 16.43ZM90.36 76.15L96.24 56.59L76.19 60.27L83.89 77.56L90.36 76.15ZM449.45 284.33L448.2 291.16L456.44 304.62L482.27 308.03L488.39 308.01L477.71 282.62L449.45 284.33ZM405 346.23L396.87 350.91L411.12 392.49L433.83 400.73L405 346.23ZM505.06 424.45L497.56 434.35L476.75 418.8L451.13 439.7L445.77 436.89L413.09 469.46L421.17 513.54L446.59 542.62L481.27 544.27L527.69 478.69L517.74 429.01L505.06 424.45V424.45ZM526.66 375.74L512.56 382.5L507 377.22L500.31 378.12L497.56 382.74L513 393.63L506.26 402.22L530.42 413.05L533.6 409.3L532.69 382.42L526.66 375.74V375.74ZM477.08 144.96L459.08 129.48L476.46 160.45L477.08 144.96ZM460.9 252.49L447.43 251.74L444.69 259.69L447.23 264.69L473.19 262.92L475.15 249.07L473.39 248.29L460.9 252.49V252.49ZM502.27 149.88L493.76 156.56L496.19 171.48L505.37 167.63L511.65 164.13L510.06 161.69L513.57 158.11L502.27 149.88V149.88ZM469.94 324.38L483.99 335.88L497.25 340.15L493.76 324.38L475.1 319.09L469.94 324.38V324.38Z" fill="#FFAAAA"/>
<path d="M505.06 377.22L502.9 362.02L485.43 357.7L480.57 364.43L495.84 373.48L505.06 377.22V377.22ZM506.76 200.6L514.57 189.3L506.93 170.38L489.84 183.55L490.56 194.39L481.27 204.29L484.43 210.02L505.09 207.57L506.76 200.6V200.6Z" fill="#FFAAAA"/>
<path d="M432.2 329.99L443.76 311.72L430.64 275.75L437.87 265.79L443.04 270.62L470.14 229.19L466.06 223.07L466.37 216.3L457.53 198.04L462.75 188.51L449.72 182.36L453.63 172.22L457.5 173.9L458.83 179.77L466.66 177.66L479.17 202.61L483.33 189.3L473.36 177.94L479.2 158.33L486.72 157.37L489.19 130.15L463.37 102.93L465.62 92.23L501.77 72.21L522.62 118.87L524.94 84.19L517.2 62.2L497.26 38.19L427.37 19.49L349.24 23.02L348.98 21.47L356.2 14.8L355.24 12.91L329.67 6.77002L305.12 13.69L307.13 19.33L284.96 29.95L291.23 47.45L285.72 51.33L287.11 42.58L279.41 26.61L270.86 29.7L258.77 40.83L224.61 43.2L226.27 49.6L211.56 56.07L200.38 47.06L219.2 47.57L177.79 33.08L139.56 78.41L147.34 85.87L151.71 82.19L155.7 93.11L162.25 96.27L170.65 79.55L166.42 71.48L178.36 53.08L181.4 53.3L178.07 74.71L195.64 78.38L171.97 104.88L150.38 104.43L155.37 100.25L155.76 95.81L149.57 98.98L150.39 90.5L111.22 134.33L119.88 144.9L112.95 158.03L98.53 160.25L98.76 187.65L106.71 192.55L150.9 157.29L166.06 183.17L172.76 173.39L156.07 152.93L155.95 148.18L157.96 147.14L185.36 182.52L185.9 172.92L200.38 169.36L198.38 162.44L208.13 140.93L212.45 150.01L219.29 148.1L214.79 144.49L225.99 137.29L223.58 150.68L235.67 165.29L195 174.98L197.32 183.41L223.36 194.2L220.96 212.13L178.87 214.38L175.87 223.22L151.77 202.33L151.07 193.79L146.55 188.94L106.63 196.08L18.02 231.73L7.89 297.12L33.39 349.32L108 382.42L180.01 544.14L191.32 543.48L240.26 438.41L235.87 400.87L270.71 315.57L254.77 321.86L215 225.7L221 226.88L256.83 307.94L294.03 265.52L283.98 244.08L264.97 244.87L261.6 223.43L331.85 263.28L346.94 328.05L352.11 330.55L384.08 262.67L400.61 293.99L408.64 295.15L432.2 329.99V329.99ZM512.59 459.13L508.87 460.3L505.17 455.27L504.27 436.58L475.07 460.66L472.38 458.59L449.79 492.18L446.59 542.62L481.27 544.27L487.62 554.85L512.58 532.11L527.69 478.69L517.74 429.01L512.59 459.13V459.13ZM568.66 429.46L532.69 382.42L522.28 390.74L517.02 385L515.59 390.23L533.6 409.3L530.42 413.05L568.66 429.46V429.46ZM446.5 364.72L447.31 383.08L452.93 389.6L466.79 386.53L473.93 348.33L464.75 346.36L446.5 364.72Z" fill="#FFFAFA"/>
<path d="M248.9 498.15L259.32 490.82L265.5 435.13L250.76 457.67L248.9 498.15V498.15ZM435.07 385.15L405 346.23L404.21 347.47L433.83 400.73L435.07 385.15V385.15ZM506.76 200.6L510.32 200.57L514.57 189.3L508.8 170.59L506.93 170.38L507.95 188.03L490.68 203.4L505.09 207.57L506.76 200.6V200.6ZM127.53 110.73L129.74 105.18L116.39 78.2L118.55 99.11L112.39 113.71L127.53 110.73V110.73ZM179.75 9.89L171.12 2.52L151.84 0L163.21 13.96L179.75 9.89ZM487.62 379.06L478.34 376.38L476.15 401.26L481.26 396.94L487.62 379.06V379.06ZM250.5 22.33L266.95 13.48L264.69 11.17L250.79 13.38L240.19 30.67L250.03 34.96L250.5 22.33ZM462.84 410.54L433.49 409.55L462.84 420.85V410.54ZM88.9 52.5L76.19 60.27L96.24 56.59L88.9 52.5V52.5ZM488.39 308.01L477.71 282.62L475.38 285.11L474.15 292.83L482.27 308.03L488.39 308.01V308.01ZM493.76 324.38L483.99 335.88L497.25 340.15L493.76 324.38ZM513.57 158.11L502.27 149.88L505.37 167.63L511.65 164.13L513.57 158.11ZM357.96 327.28L360.49 342.64L363.13 337.5L359.43 326.81L357.96 327.28V327.28ZM475.15 249.07L473.39 248.29L470.69 257.27L473.19 262.92L474.39 262.12L475.15 249.07V249.07ZM440.94 283.12L442.19 283.23L445.22 275.72L444.42 274.22L439.64 278.3L440.94 283.12ZM502.9 362.02L495.84 373.48L505.06 377.22L502.9 362.02ZM155.85 186.81L161.76 192.56L163 186.82L155.85 186.81ZM195.8 197.6L187.97 196.54L194.81 203.11L195.43 200.4L195.8 197.6V197.6Z" fill="#FFFAFA"/>
</svg>
