<svg width="353" height="60" viewBox="0 0 353 60" fill="none" xmlns="http://www.w3.org/2000/svg">
<path d="M66.42 0.5V60H54.5625V15.0775L39.8575 54.2625H27.32L12.615 15.4175V60H0.757507V0.5H18.14L33.61 40.6625L49.0375 0.5H66.42Z" fill="#333333"/>
<path d="M164.394 0.5L146.629 60H132.264L119.514 17.5L106.764 60H92.3995L74.6345 0.5H86.9595L99.752 46.145L113.054 0.5H126.187L139.489 46.145L152.282 0.5H164.394Z" fill="#333333"/>
<path d="M199.517 0.5L222.679 60H210.014L204.829 46.145H179.457L174.272 60H161.904L185.067 0.5H199.517ZM192.164 12.23L183.537 35.2225H200.749L192.164 12.23Z" fill="#333333"/>
<path d="M283.567 0.5V60H272.432L242.257 20.2625L242.215 60H230.357V0.5H241.45L271.667 40.2375V0.5H283.567Z" fill="#333333"/>
<path d="M328.843 0.5L352.005 60H339.34L334.155 46.145H308.783L303.598 60H291.23L314.393 0.5H328.843ZM321.49 12.23L312.863 35.2225H330.075L321.49 12.23Z" fill="#333333"/>
</svg>
