<svg width="124" height="144" viewBox="0 0 124 144" fill="none" xmlns="http://www.w3.org/2000/svg">
<path d="M69.53 1.47811e-06H33.85C29.4044 -0.00131243 25.0021 0.873347 20.8946 2.574C16.7871 4.27466 13.055 6.76798 9.91151 9.91151C6.76798 13.055 4.27466 16.7871 2.574 20.8946C0.873347 25.0021 -0.00131243 29.4044 1.47811e-06 33.85V81.5C1.28404e-06 85.9448 0.87563 90.346 2.57687 94.4523C4.27812 98.5586 6.77165 102.29 9.91504 105.432C13.0584 108.574 16.7901 111.067 20.8969 112.767C25.0037 114.467 29.4052 115.341 33.85 115.34H52.1V143.34L80.1 115.34H90C98.9732 115.337 107.578 111.771 113.922 105.425C120.266 99.079 123.83 90.4732 123.83 81.5V54.3C123.83 47.1692 122.425 40.1083 119.697 33.5203C116.968 26.9323 112.968 20.9463 107.926 15.9041C102.884 10.8619 96.8977 6.86217 90.3097 4.13334C83.7217 1.40451 76.6608 1.47811e-06 69.53 1.47811e-06V1.47811e-06Z" fill="#FF5757"/>
</svg>
