<svg width="152" height="126" viewBox="0 0 152 126" fill="none" xmlns="http://www.w3.org/2000/svg">
<path d="M26.56 1.47724e-06V21.32H0L26.56 47.88V91.46C26.5587 95.9056 27.4333 100.308 29.134 104.415C30.8347 108.523 33.328 112.255 36.4715 115.398C39.615 118.542 43.3471 121.035 47.4546 122.736C51.5621 124.437 55.9644 125.311 60.41 125.31H97.56C104.692 125.31 111.753 123.905 118.342 121.176C124.931 118.446 130.917 114.446 135.959 109.402C141.002 104.359 145.001 98.3719 147.73 91.7828C150.458 85.1936 151.861 78.1316 151.86 71V33.85C151.86 29.4039 150.984 25.0014 149.282 20.8939C147.581 16.7863 145.086 13.0543 141.942 9.9109C138.798 6.76751 135.065 4.27434 130.957 2.57381C126.849 0.873275 122.446 -0.00131199 118 1.47724e-06H26.56Z" fill="#FF5757"/>
</svg>
